<svg xmlns="http://www.w3.org/2000/svg" xmlns:xlink="http://www.w3.org/1999/xlink" width="54" height="54" version="1.1" viewBox="0 0 54 54"><title>icon/已取消</title><g id="icon/已取消" fill="none" fill-rule="evenodd" stroke="none" stroke-width="1"><g id="icon/已驳回备份-2"><g id="已驳回"><rect id="矩形" width="54" height="54" x="0" y="0"/><g id="7_驳回" fill-rule="nonzero" transform="translate(12.000000, 10.000000)"><path id="形状" fill="#FFF" d="M17.82,4.21585937 L1.62,4.21585937 C0.729,4.21585937 -1.6571633e-11,3.48685937 -1.6571633e-11,2.59585937 C-1.6571633e-11,1.70485937 0.729,0.975859371 1.62,0.975859371 L17.82,0.975859371 C18.711,0.975859371 19.44,1.70485937 19.44,2.59585937 C19.44,3.48685937 18.711,4.21585937 17.82,4.21585937 Z M12.42,13.24 L1.62,13.24 C0.729,13.24 -5.01998443e-12,12.511 -5.01998443e-12,11.62 C-5.01998443e-12,10.729 0.729,10 1.62,10 L12.42,10 C13.311,10 14.04,10.729 14.04,11.62 C14.04,12.511 13.311,13.24 12.42,13.24 L12.42,13.24 Z M9.18,22.24 L1.62,22.24 C0.729,22.24 1.45483625e-12,21.511 1.45483625e-12,20.62 C1.45483625e-12,19.729 0.729,19 1.62,19 L9.18,19 C10.071,19 10.8,19.729 10.8,20.62 C10.8,21.511 10.071,22.24 9.18,22.24 Z"/><path id="路径" fill="#40A0FF" d="M14.1576701,29.0726838 C14.1576701,33.3599324 16.4446907,37.3210052 20.1575107,39.4646295 C23.8754554,41.608273 28.4405228,41.608273 32.1584675,39.4646295 C35.8706495,37.3216485 38.1576701,33.3599324 38.1576701,29.0726838 C38.1576701,24.7854352 35.8706495,20.8237191 32.1578296,18.6800948 C28.4398848,16.5364512 23.8748175,16.5364512 20.1568727,18.6800948 C16.4440528,20.8243624 14.1570322,24.7860786 14.1576701,29.0726838 L14.1576701,29.0726838 Z"/><path id="路径" fill="#FFF" d="M28.0760201,29.552577 L30.3148601,27.314277 C30.8424028,26.7835267 30.8424028,25.9264074 30.3148601,25.395657 C29.7841098,24.8681143 28.9269905,24.8681143 28.3962401,25.395657 L26.1574001,27.633957 L23.9191001,25.395657 C23.3883498,24.8681143 22.5312305,24.8681143 22.0004801,25.395657 C21.4729374,25.9264074 21.4729374,26.7835267 22.0004801,27.314277 L24.2387801,29.552577 L22.0004801,31.790877 C21.4729374,32.3216274 21.4729374,33.1787467 22.0004801,33.709497 C22.5312305,34.2370397 23.3883498,34.2370397 23.9191001,33.709497 L26.1574001,31.471197 L28.3962401,33.709497 C28.9269905,34.2370397 29.7841098,34.2370397 30.3148601,33.709497 C30.8424028,33.1787467 30.8424028,32.3216274 30.3148601,31.790877 L28.0760201,29.552577 L28.0760201,29.552577 Z"/></g></g></g><path id="形状结合" fill="#3889FF" d="M39,5 C41.209139,5 43,6.790861 43,9 L43.0010864,24.8539126 C41.4368847,24.3009104 39.7535831,24 38,24 C29.7157288,24 23,30.7157288 23,39 C23,42.842282 24.4446512,46.3471477 26.8204131,49.0010565 L10,49 C7.790861,49 6,47.209139 6,45 L6,9 C6,6.790861 7.790861,5 10,5 L39,5 Z"/><path id="形状" fill="#FFF" fill-rule="nonzero" d="M29.82,14.2158594 L13.62,14.2158594 C12.729,14.2158594 12,13.4868594 12,12.5958594 C12,11.7048594 12.729,10.9758594 13.62,10.9758594 L29.82,10.9758594 C30.711,10.9758594 31.44,11.7048594 31.44,12.5958594 C31.44,13.4868594 30.711,14.2158594 29.82,14.2158594 Z M24.42,23.24 L13.62,23.24 C12.729,23.24 12,22.511 12,21.62 C12,20.729 12.729,20 13.62,20 L24.42,20 C25.311,20 26.04,20.729 26.04,21.62 C26.04,22.511 25.311,23.24 24.42,23.24 L24.42,23.24 Z M21.18,32.24 L13.62,32.24 C12.729,32.24 12,31.511 12,30.62 C12,29.729 12.729,29 13.62,29 L21.18,29 C22.071,29 22.8,29.729 22.8,30.62 C22.8,31.511 22.071,32.24 21.18,32.24 Z"/></g></svg>